<svg xmlns="http://www.w3.org/2000/svg" viewBox="0 0 63 63">
  <circle cx="31.5" cy="31.5" r="31.5" fill="#1ed760"/>
  <path d="M45 41.3a2 2 0 01-2.7.7c-7.3-4.5-16.6-5.6-27.4-3.2a2 2 0 01-.9-3.9c11.7-2.6 21.7-1.4 29.8 3.6.9.5 1.2 1.7.6 2.8zm3.5-7.6a2.5 2.5 0 01-3.3 1c-8.3-5-20.8-6.5-30.5-3.7a2.5 2.5 0 01-1.4-4.8c10.9-3.2 24.7-1.6 34.2 4.2a2.5 2.5 0 011 3.3zm.3-8.3c-9.8-5.8-26-6.4-35.5-3.6-1.3.4-2.8-.3-3.2-1.6s.3-2.8 1.6-3.2c10.8-3.2 28.6-2.5 39.9 4.3 1.2.7 1.6 2.2.9 3.4-.7 1.3-2.2 1.6-3.7.7z" fill="#000"/>
</svg>
